<svg aria-hidden="true" style="position: absolute; width: 0; height: 0; overflow: hidden;" version="1.1" xmlns="http://www.w3.org/2000/svg" xmlns:xlink="http://www.w3.org/1999/xlink">
<defs>
<symbol id="icon-Logo-Ship" viewBox="0 0 32 32">
<path d="M16.14 0.001c-8.947-0.074-16.213 7.192-16.139 16.139 0.075 8.688 7.173 15.787 15.859 15.859 8.947 0.077 16.216-7.192 16.139-16.139-0.072-8.685-7.171-15.784-15.859-15.859zM11.356 7.964c1.024 1.301 1.637 2.947 1.637 4.733 0 1.547-0.459 2.987-1.248 4.189h-5.547l5.158-8.922zM28.268 17.711v1.152c0 0.075-0.040 0.139-0.109 0.168-0.376 0.16-1.616 0.736-2.133 1.453-1.331 1.853-2.347 4.765-4.619 4.765h-9.48c-3.357 0-6.165-2.664-6.163-6.213 0-0.088 0.075-0.16 0.163-0.16h4.493c0.155 0 0.277 0.125 0.277 0.277v0.867c0 0.461 0.373 0.835 0.835 0.835h3.408v-1.984h-2.328c1.339-1.696 2.136-3.837 2.136-6.168 0-2.6-0.997-4.971-2.629-6.744 0.987 0.115 1.931 0.312 2.821 0.573v-0.552c0-0.573 0.464-1.037 1.037-1.037s1.037 0.464 1.037 1.037v1.331c3.181 1.485 5.264 3.949 5.264 6.736 0 1.635-0.715 3.157-1.949 4.437-0.237 0.245-0.565 0.384-0.909 0.384h-2.405v1.981h3.019c0.651 0 1.819-1.235 2.373-1.979 0 0 0.024-0.037 0.088-0.056s5.544-1.277 5.544-1.277c0.115-0.032 0.229 0.056 0.229 0.173v0.002z"></path>
</symbol>
<symbol id="icon-X-Icon" viewBox="0 0 32 32" fill="red">
<path d="M23.779 9.636l-14.142 14.142-1.414-1.414 14.142-14.142 1.414 1.414z"></path>
<path d="M9.635 8.222l14.142 14.142-1.414 1.414-14.142-14.142 1.414-1.414z"></path>
</symbol>
<symbol id="icon-Discord" viewBox="0 0 32 32">
<path d="M11.288 6.402c-1.524 0.32-2.844 0.736-4.498 1.42-0.080 0.034-0.902 1.29-1.32 2.014-1.356 2.296-2.303 4.994-2.667 7.874l-0.011 0.104c-0.102 0.842-0.136 3.406-0.056 4.16l0.044 0.4 0.624 0.408c1.73 1.13 3.444 1.96 5.346 2.586l0.76 0.25 0.128-0.156c0.182-0.22 0.98-1.432 1.174-1.784l0.164-0.296-0.328-0.124c-0.466-0.176-1.902-0.868-1.902-0.916 0-0.022 0.116-0.124 0.258-0.23l0.26-0.188 0.394 0.166c1.050 0.439 2.284 0.804 3.564 1.037l0.112 0.017c1.78 0.3 3.808 0.282 5.652-0.050 1.268-0.256 2.375-0.595 3.435-1.026l-0.127 0.046 0.452-0.184 0.238 0.176c0.097 0.065 0.18 0.139 0.253 0.222l0.001 0.002c0.022 0.060-0.844 0.496-1.622 0.816l-0.596 0.246 0.282 0.482c0.328 0.564 1.014 1.58 1.126 1.674 0.064 0.054 0.21 0.024 0.76-0.156 2.031-0.67 3.793-1.536 5.408-2.607l-0.082 0.051 0.702-0.458 0.032-0.242c0.018-0.134 0.048-0.77 0.066-1.416 0.007-0.201 0.011-0.438 0.011-0.675 0-3.295-0.8-6.404-2.216-9.142l0.052 0.111c-0.454-0.919-0.907-1.691-1.407-2.429l0.045 0.071-0.528-0.81-0.81-0.318c-0.918-0.362-1.706-0.62-2.596-0.854-0.776-0.206-2.012-0.452-2.096-0.418-0.058 0.022-0.618 1.054-0.684 1.258-0.022 0.066-0.154 0.062-0.908-0.014-0.651-0.056-1.408-0.088-2.173-0.088s-1.522 0.032-2.271 0.095l0.098-0.007c-0.48 0.048-0.88 0.078-0.886 0.068l-0.338-0.662c-0.272-0.534-0.346-0.64-0.454-0.65-0.332 0.036-0.627 0.087-0.915 0.156l0.049-0.010zM12.536 14.544c0.438 0.216 0.734 0.47 0.982 0.842 0.53 0.8 0.588 1.828 0.152 2.7-0.472 0.942-1.48 1.492-2.434 1.326-1.402-0.242-2.322-1.696-1.982-3.134 0.154-0.656 0.522-1.214 1.022-1.544 0.47-0.314 0.762-0.392 1.38-0.374 0.478 0.014 0.574 0.034 0.88 0.184zM21.386 14.54c1.406 0.66 1.868 2.488 0.974 3.848-0.492 0.746-1.43 1.17-2.27 1.024-1.318-0.228-2.23-1.55-2.018-2.922 0.15-0.96 0.768-1.742 1.62-2.046 0.22-0.078 0.398-0.096 0.814-0.084 0.466 0.014 0.578 0.038 0.88 0.18z"></path>
</symbol>
<symbol id="icon-MadeBy" viewBox="0 0 48 32">
<path d="M20.067 0.118c1.194-0.195 2.728-0.054 3.905 0.359 0.488 0.172 1.308 0.635 1.308 0.74 0 0.035-0.189 0.063-0.42 0.063s-0.798 0.077-1.26 0.171c-1.174 0.238-2.836 0.24-4.419 0.004-0.649-0.096-1.346-0.175-1.55-0.175-0.326 0-0.358-0.015-0.267-0.125 0.307-0.369 1.558-0.85 2.703-1.037zM10.541 0.157c0.532-0.097 1.967-0.026 2.539 0.126 0.827 0.22 2.44 1.087 2.44 1.312 0 0.033-0.22 0.191-0.488 0.351l-0.488 0.29-0.252-0.189c-0.705-0.528-1.737-0.84-3.712-1.122-0.79-0.113-1.478-0.205-1.528-0.205s-0.092-0.031-0.092-0.068c0-0.077 0.995-0.388 1.581-0.495zM30.226 0.162l-0.035 0.004c0.312-0.048 0.633-0.073 0.959-0.073 0.328 0 0.651 0.025 0.93 0.070 0.665 0.104 1.68 0.4 1.68 0.489 0 0.037-0.045 0.068-0.1 0.068-0.055 0.001-0.73 0.091-1.5 0.201-2.068 0.296-2.902 0.537-3.671 1.061l-0.35 0.238-0.47-0.279c-0.258-0.154-0.469-0.311-0.469-0.35 0-0.107 0.621-0.536 1.205-0.832l-0.037 0.017c0.564-0.287 1.175-0.494 1.858-0.614zM3.872 0.801c-0.579 0.18-0.984 0.96-1.393 2.685-0.302 1.268-0.432 1.565-1.070 2.426-0.717 0.969-0.769 1.092-0.769 1.834 0 0.359-0.052 0.781-0.12 0.974-0.059 0.155-0.101 0.335-0.119 0.521l-0.001 0.009c0 0.185 0.018 0.19 0.677 0.19h0.677l0.088-0.34c0.149-0.579 0.174-0.651 0.337-0.98 0.326-0.658 0.809-1.013 1.377-1.013 0.911 0 1.377 0.554 1.624 1.933l0.065 0.36 7.796 0.042 0.161-0.261c0.089-0.144 0.22-0.459 0.292-0.701 0.127-0.431 0.125-0.458-0.095-1.32-0.26-1.019-0.34-2.121-0.202-2.786 0.052-0.251 0.223-0.713 0.381-1.027 0.276-0.554 0.281-0.576 0.134-0.689-0.56-0.43-1.671-0.73-3.623-0.978-1.469-0.187-1.992-0.288-3.349-0.646-1.013-0.267-2.398-0.38-2.868-0.233zM37.040 0.779c-0.11 0.020-0.758 0.178-1.44 0.35-0.645 0.167-1.486 0.333-2.339 0.457l-0.141 0.017c-2.381 0.311-3.556 0.602-4.053 1.003l-0.227 0.183 0.21 0.386c0.399 0.732 0.508 1.196 0.506 2.145-0.001 0.707-0.044 1.035-0.219 1.667-0.119 0.433-0.217 0.888-0.217 1.011 0 0.345 0.245 1.024 0.45 1.245l0.184 0.199 7.715-0.042 0.095-0.564c0.195-1.157 0.718-1.734 1.572-1.734 0.752 0 1.309 0.575 1.628 1.682l0.178 0.616 0.65 0.023c0.763 0.028 0.812-0.020 0.616-0.596-0.070-0.206-0.128-0.63-0.128-0.941-0.001-0.795-0.089-1.031-0.677-1.823-0.708-0.954-0.889-1.345-1.17-2.52-0.289-1.21-0.648-2.174-0.895-2.406-0.323-0.304-0.727-0.418-1.435-0.406-0.305 0.001-0.605 0.018-0.9 0.051l0.037-0.003zM38.267 2.145c0.207 0.187 0.402 0.602 0.569 1.21 0.077 0.284 0.265 0.799 0.418 1.145 0.32 0.728 0.307 0.984-0.062 1.295-0.444 0.373-1.156 0.461-1.917 0.237-1.299-0.382-1.977-2.422-1.184-3.562 0.387-0.557 1.703-0.753 2.176-0.325zM5.884 2.009c1.014 0.256 1.374 1.659 0.752 2.928-0.293 0.599-0.687 0.945-1.27 1.116-0.804 0.235-1.807 0.010-2.050-0.46-0.167-0.323-0.145-0.531 0.112-1.076 0.126-0.265 0.342-0.846 0.48-1.291 0.207-0.666 0.301-0.853 0.534-1.057 0.237-0.208 0.35-0.249 0.685-0.249 0.221 0 0.562 0.040 0.757 0.089zM16.48 2.209c-1.394 0.374-2.065 1.008-2.444 2.311-0.173 0.597-0.119 1.389 0.163 2.399 0.228 0.817 0.25 1.376 0.071 1.841-0.052 0.127-0.109 0.293-0.157 0.463l-0.009 0.037-0.043 0.18 5.019-0.001 0.269-0.52c0.966-1.867 2.976-1.867 3.942 0l0.269 0.52 2.58 0.001c1.419 0 2.58-0.023 2.58-0.052s-0.098-0.253-0.219-0.499c-0.27-0.552-0.28-1.038-0.042-2.049 0.482-2.046 0.216-3.312-0.855-4.059-0.958-0.668-2.14-0.794-4.385-0.467-1.482 0.216-2.236 0.209-3.94-0.033-1.589-0.226-2.171-0.241-2.799-0.072zM10.907 3.042c0.831 0.311 1.173 0.855 1.173 1.866 0 0.52-0.226 1.295-0.482 1.655-0.106 0.148-0.374 0.346-0.631 0.465-0.631 0.294-1.686 0.301-2.317 0.017-0.517-0.233-0.651-0.483-0.649-1.222 0.002-0.959 0.369-2.025 0.852-2.475 0.486-0.455 1.324-0.579 2.054-0.306zM33.464 3.104c0.683 0.303 1.144 1.255 1.226 2.536 0.034 0.52 0.014 0.693-0.104 0.92-0.322 0.618-1.525 0.888-2.558 0.574-0.93-0.283-1.313-0.881-1.372-2.142-0.028-0.607-0.007-0.789 0.128-1.094 0.384-0.869 1.657-1.246 2.68-0.794zM19.576 3.494c0.792 0.394 0.807 1.209 0.045 2.415-1.443 2.285-4.263 2.218-4.261-0.101 0.002-1.612 1.318-2.593 3.341-2.49 0.348 0.018 0.699 0.089 0.875 0.176zM25.48 3.468c1.219 0.328 1.88 1.134 1.88 2.296 0 1.213-0.708 1.917-1.825 1.816-1.337-0.121-2.845-1.686-2.956-3.067-0.036-0.453-0.022-0.507 0.194-0.749 0.317-0.355 0.845-0.495 1.667-0.443 0.352 0.022 0.82 0.088 1.040 0.147zM0.4 16.678v-5.562l2.917 0.044 1.648 2.9c0.906 1.595 1.667 2.918 1.689 2.941s0.841-1.291 1.818-2.92l1.776-2.961h2.952v11.12h-2.958l-0.042-5.028-3.518 5.012-3.362-5.046-0.042 5.062h-2.878v-5.562zM16.8 11.153c0 0.019-0.666 2.488-1.48 5.485s-1.48 5.484-1.48 5.526c0 0.045 0.53 0.076 1.307 0.076h1.308l0.312-1.040 0.313-1.039 3.389-0.001 0.686 2.080h1.303c0.716 0 1.3-0.009 1.298-0.020l-1.461-5.54-1.457-5.52-2.019-0.021c-1.11-0.012-2.019-0.006-2.019 0.014zM24.32 16.681v5.573l2.5-0.035c2.055-0.029 2.584-0.060 2.974-0.174 1.656-0.481 2.83-1.621 3.383-3.285 0.197-0.592 0.213-0.746 0.218-2.040 0.006-1.645-0.114-2.299-0.597-3.265-0.394-0.787-0.975-1.375-1.718-1.739-1.054-0.515-1.245-0.542-4.14-0.576l-2.62-0.032v5.573zM34.080 16.68v-5.56h8.24v2.48h-5.6v1.76h5.6v2.48h-5.6v2.080h5.6v2.32h-8.24v-5.56zM43.92 11.28c0-0.15 0.053-0.16 0.88-0.16s0.88 0.010 0.88 0.16c0 0.133-0.053 0.16-0.32 0.16h-0.32v1.52h-0.48v-1.52h-0.32c-0.267 0-0.32-0.027-0.32-0.16zM45.84 12.035v-0.925l0.257 0.025c0.216 0.021 0.297 0.093 0.5 0.444 0.134 0.23 0.267 0.419 0.295 0.42 0.029 0 0.164-0.197 0.301-0.439 0.227-0.402 0.273-0.44 0.528-0.44h0.279v1.84h-0.24c-0.239 0-0.24-0.003-0.24-0.456v-0.456l-0.291 0.416c-0.161 0.229-0.314 0.416-0.34 0.416s-0.157-0.189-0.289-0.42l-0.24-0.42-0.024 0.46c-0.023 0.451-0.029 0.46-0.26 0.46h-0.236v-0.925zM29.24 13.849c0.181 0.061 0.495 0.281 0.724 0.509 0.577 0.575 0.717 1.047 0.713 2.402-0.005 1.308-0.163 1.789-0.787 2.402-0.549 0.538-0.991 0.678-2.139 0.678h-0.871v-6.179l1.020 0.041c0.561 0.022 1.164 0.089 1.34 0.147zM20 18.049c0 0.090-0.238 0.111-1.24 0.111-0.682 0-1.24-0.022-1.24-0.049 0-0.026 0.293-0.953 0.65-2.058l0.651-2.010 0.589 1.948c0.325 1.071 0.59 1.998 0.59 2.058zM0.357 23.46c-0.021 0.055-0.029 1.972-0.018 4.26l0.021 4.16h2.28c2.080 0 2.319-0.014 2.72-0.16 1.114-0.405 1.703-1.646 1.441-3.034-0.117-0.62-0.467-1.219-0.756-1.292l-0.201-0.050 0.196-0.256c0.331-0.435 0.44-0.8 0.438-1.465-0.003-0.999-0.324-1.495-1.238-1.91-0.572-0.26-1.425-0.353-3.248-0.353-1.204 0-1.606 0.025-1.635 0.1zM6.211 23.46c-0.047-0.078 0.214-0.1 1.204-0.1l1.265 0.001 0.615 1.219c0.339 0.671 0.666 1.288 0.727 1.371 0.103 0.139 0.174 0.041 0.869-1.2l0.756-1.351 1.136-0.022c0.626-0.012 1.137 0 1.137 0.026 0 0.027-0.63 1.1-1.4 2.384l-1.4 2.334v3.718h-2l-0.001-1.82c-0.001-1.757-0.007-1.831-0.186-2.14-0.102-0.176-0.743-1.22-1.424-2.32s-1.266-2.045-1.298-2.1zM38.224 23.514c0.516-0.165 1.752-0.202 2.325-0.070 0.501 0.116 1.537 0.532 1.767 0.71l0.197 0.151-0.39 0.853c-0.295 0.645-0.421 0.844-0.517 0.815-0.069-0.022-0.414-0.168-0.766-0.325-0.974-0.435-1.745-0.37-1.811 0.152-0.042 0.334 0.097 0.492 0.708 0.805 1.339 0.685 2.159 1.367 2.511 2.089 0.508 1.038-0.043 2.33-1.248 2.928-1.152 0.571-2.425 0.485-3.946-0.266-0.664-0.328-0.816-0.435-0.773-0.542 0.029-0.074 0.179-0.481 0.332-0.905l0.279-0.771 0.869 0.349c1.066 0.429 1.391 0.488 1.78 0.326 0.326-0.136 0.454-0.425 0.32-0.719-0.044-0.097-0.447-0.383-0.91-0.646-1.406-0.8-1.964-1.299-2.313-2.067-0.186-0.411-0.198-0.779-0.041-1.307 0.22-0.741 0.798-1.294 1.627-1.56zM15.649 27.54c-1.323 5.375-1.717 6.78-2.116 8.183l0.969-3.983c-0.027 0.077 0.208 0.1 1.011 0.1 0.71 0 1.047-0.028 1.047-0.088 0-0.049 0.094-0.391 0.209-0.76l0.21-0.672h2.587l0.484 1.48 1.013 0.022c0.797 0.018 1.006 0.001 0.978-0.080-0.020-0.056-0.471-1.758-1.003-3.782-1.465-6.182-1.838-7.555-2.215-8.926l1.131 4.826-0.118-0.42-3.076 0.001-1.111 4.099zM22.56 27.634v4.206h2.080v-2.616l0.72-0.051c2.329-0.165 3.708-1.45 3.579-3.334-0.077-1.128-0.533-1.793-1.493-2.176-0.417-0.167-0.592-0.18-2.666-0.206l-2.22-0.028v4.205zM29.44 27.64v-4.2h6.32v1.84h-4.32v1.36h4.32v1.84h-4.32v1.6h4.32v1.76h-6.32v-4.2zM26.194 24.968c0.655 0.182 0.972 0.828 0.771 1.574-0.189 0.701-0.69 1.023-1.73 1.111l-0.595 0.050v-2.823h0.62c0.341 0.001 0.761 0.040 0.934 0.088zM4.328 25.43c0.229 0.283 0.206 0.843-0.044 1.094-0.185 0.184-0.249 0.196-1.080 0.196h-0.884v-1.537l0.928 0.029c0.859 0.027 0.939 0.044 1.080 0.218zM18.788 27.2c0.227 0.77 0.413 1.427 0.413 1.46-0.001 0.033-0.429 0.060-0.953 0.060h-0.952l0.492-1.512c0.271-0.832 0.513-1.489 0.539-1.46s0.233 0.682 0.461 1.452zM4.444 28.596c0.266 0.267 0.283 1.032 0.030 1.353-0.163 0.208-0.181 0.211-1.16 0.211h-0.994v-1.76h0.964c0.916 0 0.973 0.010 1.16 0.196z"></path>
</symbol>
<symbol id="icon-Twit" viewBox="0 0 32 32">
<path d="M0.040 0.066c0.030 0.038 2.842 4.036 6.248 8.886 5.342 7.604 6.186 8.832 6.128 8.904-0.090 0.112-12.122 13.804-12.3 13.998l-0.136 0.146h2.83l5.382-6.118c2.96-3.364 5.418-6.164 5.464-6.22 0.080-0.098 0.326 0.242 4.454 6.118l4.37 6.22h9.526l-0.174-0.254c-0.096-0.138-3.012-4.292-6.482-9.228l-6.306-8.976 11.908-13.542h-2.818l-5.112 5.812c-2.787 3.19-4.478 5.099-6.176 7.002l0.996-1.136c-0.052 0.044-1.038-1.326-4.19-5.81l-4.122-5.868h-4.772c-3.81 0-4.76 0.014-4.718 0.066zM18.134 16.004c5.47 7.658 9.954 13.944 9.964 13.972 0.010 0.032-0.802 0.050-2.11 0.050h-2.13l-0.108-0.12c-0.060-0.066-3.392-4.716-7.406-10.332l-12.5-17.494 4.342 0.004 9.948 13.92z"></path>
</symbol>
<symbol id="icon-Fox-Icon" viewBox="0 0 32 32">
<path d="M4.588 6.731c0.529-1.564 0.607-1.755 0.697-1.732 0.056 0.015 0.101 0.048 0.101 0.072 0 0.025 0.037 0.032 0.083 0.015 0.048-0.019 0.076-0.005 0.067 0.032-0.009 0.036 1.94 1.503 4.331 3.26 2.391 1.759 4.353 3.216 4.361 3.24s-0.757 0.688-1.7 1.477l-1.716 1.435-0.736 1.104-0.737 1.104 0.251 0.029-0.277-0.014c0.872 0.055 1.748 0.098 2.795 0.134 1.247 0.051 2.323 0.111 2.392 0.136 0.092 0.033 0.115 0.071 0.087 0.139-0.021 0.051-0.141 0.64-0.268 1.311s-0.239 1.225-0.247 1.235l-0.166-0.036c-0.43-0.109-0.855-0.23-1.105-0.316-0.689-0.201-1.271-0.367-1.292-0.367-0.021-0.001-0.045 0.292-0.055 0.652l-0.017 0.653-0.011-0.667-0.012-0.668-0.976-0.975c-0.536-0.536-0.996-0.956-1.021-0.932-0.025 0.023-0.029 0.011-0.008-0.025 0.021-0.037 0.015-0.067-0.015-0.067s-0.068-0.047-0.085-0.104c-0.024-0.075 0.153-0.383 0.653-1.133 0.377-0.565 0.701-1.055 0.72-1.087 0.032-0.056-4.669 1.297-4.801 1.381-0.036 0.023-0.067 0.020-0.067-0.007 0-0.028-0.228-0.316-0.507-0.643-0.279-0.325-0.507-0.617-0.507-0.647s0.099-0.119 0.219-0.199l0.22-0.145-0.153-0.129c-0.084-0.071-0.257-0.225-0.387-0.344l-0.235-0.213 0.153-0.112 0.014-0.010c0.095-0.070 0.187-0.144 0.27-0.214l0.131-0.112-0.353-0.261c-0.195-0.144-0.355-0.275-0.356-0.292s0.107-0.109 0.241-0.207c0.133-0.096 0.232-0.201 0.22-0.235-0.013-0.033-0.196-0.893-0.408-1.909l-0.384-1.849 0.596-1.759zM26.599 5.035c0.081-0.036 0.16-0.068 0.175-0.069 0.015-0.003 0.296 0.793 0.624 1.768l0.599 1.773-0.364 1.768c-0.2 0.972-0.38 1.829-0.399 1.903-0.029 0.116 0.001 0.16 0.207 0.308 0.132 0.095 0.24 0.187 0.239 0.204 0 0.017-0.133 0.125-0.296 0.243-0.437 0.312-0.436 0.307-0.131 0.551l0.269 0.213-0.756 0.684 0.217 0.151c0.12 0.083 0.217 0.172 0.217 0.197 0 0.027-0.228 0.315-0.507 0.64-0.279 0.327-0.507 0.615-0.507 0.643 0 0.027-0.031 0.029-0.067 0.007-0.132-0.084-4.833-1.437-4.801-1.381l0.256 0.412c0.235 0.356 0.473 0.71 0.464 0.674 0.5 0.751 0.677 1.059 0.653 1.133-0.017 0.057-0.056 0.104-0.085 0.104s-0.036 0.029-0.015 0.067c0.021 0.036 0.017 0.048-0.008 0.025-0.025-0.024-0.485 0.396-1.021 0.932l-0.976 0.975-0.011 0.535-0.012 0.533-0.017-0.52c-0.009-0.287-0.035-0.519-0.055-0.519-0.021 0.001-0.601 0.164-1.289 0.361-1.149 0.331-1.255 0.372-1.287 0.492-0.028 0.104-0.036 0.087-0.037-0.081-0.003-0.215-0.421-2.568-0.472-2.649-0.063-0.101 0.336-0.137 2.487-0.224 1.247-0.049 2.38-0.104 2.517-0.12l0.251-0.029-1.472-2.204-1.715-1.436c-0.943-0.791-1.715-1.453-1.715-1.473 0-0.021 1.967-1.485 4.371-3.255 2.405-1.771 4.36-3.229 4.345-3.244-0.013-0.015 0.041-0.055 0.123-0.091zM12.8 7.827c0-0.021 1.445-0.035 3.213-0.028 1.767 0.007 2.697 0.019 2.067 0.027-2.967 0.037-5.28 0.037-5.28 0.001zM14.519 16.587c0-0.103 0.012-0.144 0.025-0.093l-0.001-0.003c0.007 0.031 0.011 0.063 0.011 0.096s-0.004 0.065-0.010 0.093c-0.013 0.051-0.025 0.009-0.025-0.093zM22.293 17.547c-0.117 0.235-0.203 0.427-0.188 0.427s0.124-0.192 0.241-0.427c0.117-0.235 0.203-0.427 0.188-0.427s-0.124 0.192-0.241 0.427zM9.787 17.813c0.161 0.323 0.307 0.587 0.321 0.587s-0.107-0.264-0.268-0.587c-0.161-0.323-0.307-0.587-0.321-0.587s0.107 0.264 0.268 0.587zM21.44 19.2c0.117-0.235 0.227-0.427 0.241-0.427s-0.071 0.192-0.188 0.427c-0.117 0.235-0.227 0.427-0.241 0.427s0.071-0.192 0.188-0.427zM10.853 19.893c-0.161-0.323-0.283-0.587-0.268-0.587s0.16 0.264 0.321 0.587c0.161 0.323 0.283 0.587 0.268 0.587s-0.16-0.264-0.321-0.587zM14.084 19.924c-0.003-0.056 0.011-0.087 0.028-0.069s0.020 0.064 0.004 0.103c-0.016 0.041-0.029 0.029-0.032-0.033zM17.821 20.107c0-0.073 0.012-0.104 0.027-0.067l-0-0.001c0.008 0.021 0.012 0.044 0.012 0.068s-0.004 0.047-0.012 0.067c-0.015 0.037-0.027 0.007-0.027-0.067zM14.141 20.213c0-0.073 0.012-0.104 0.027-0.067l-0-0.001c0.008 0.021 0.012 0.044 0.012 0.068s-0.004 0.047-0.012 0.067c-0.015 0.037-0.027 0.007-0.027-0.067zM17.768 20.373c0-0.073 0.012-0.103 0.027-0.067l-0-0.001c0.008 0.021 0.012 0.044 0.012 0.068s-0.004 0.047-0.012 0.067c-0.015 0.036-0.027 0.007-0.027-0.067zM20.707 20.62c0.080-0.165 0.159-0.3 0.173-0.3 0.016 0-0.044 0.144-0.133 0.32s-0.185 0.32-0.215 0.32c-0.029 0-0.048-0.135-0.043-0.307l0.008-0.307 0.032 0.287 0.031 0.285 0.147-0.299zM14.195 20.48c0-0.073 0.012-0.103 0.027-0.067l-0-0.001c0.008 0.021 0.012 0.044 0.012 0.068s-0.004 0.047-0.012 0.067c-0.015 0.037-0.027 0.007-0.027-0.067zM17.715 20.64c0-0.073 0.012-0.104 0.027-0.067l-0-0.001c0.008 0.021 0.012 0.044 0.012 0.068s-0.004 0.047-0.012 0.067c-0.015 0.037-0.027 0.007-0.027-0.067zM14.248 20.747c0-0.073 0.012-0.104 0.027-0.067l-0-0.001c0.008 0.021 0.012 0.044 0.012 0.068s-0.004 0.047-0.012 0.067c-0.015 0.037-0.027 0.007-0.027-0.067zM11.477 20.827c-0.001-0.088 0.009-0.131 0.024-0.095l-0.001-0.002c0.008 0.028 0.013 0.057 0.013 0.087 0 0.027-0.003 0.053-0.009 0.075-0.013 0.052-0.025 0.023-0.027-0.065zM17.657 20.937c-0.003-0.056 0.011-0.087 0.028-0.069s0.020 0.064 0.004 0.103c-0.016 0.041-0.029 0.029-0.032-0.033zM14.301 21.013c0-0.073 0.012-0.103 0.027-0.067l-0-0.001c0.008 0.021 0.012 0.044 0.012 0.068s-0.004 0.047-0.012 0.067c-0.015 0.037-0.027 0.007-0.027-0.067zM4.215 21.107c-0.001-0.079 0.045-0.092 0.305-0.084l0.307 0.009-0.265 0.021c-0.147 0.011-0.284 0.048-0.307 0.084-0.027 0.041-0.040 0.032-0.040-0.031zM8.593 21.049c-0.013-0.033 0.084-0.040 0.267-0.019l-0.060-0.003c0.439 0.026 0.882 0.040 1.328 0.040 0.069 0 0.137-0 0.195-0.001h1.176l1.352 1.040c0.743 0.572 1.376 1.040 1.405 1.040l0.005-0.002c0.085-0.032 0.164-0.079 0.231-0.137 0.135-0.103 0.176-0.171 0.159-0.253-0.015-0.064-0.007-0.235 0.015-0.381 0.040-0.265 0.040-0.264 0.048 0.12l0.007 0.387h2.56l0.001-0.147v0c0-0.001 0-0.001 0-0.002 0-0.082 0.020-0.16 0.055-0.225 0.040-0.057 0.047-0.013 0.024 0.16-0.031 0.231-0.024 0.245 0.163 0.364 0.107 0.068 0.225 0.112 0.264 0.097 0.039-0.016 0.657-0.483 1.376-1.039l1.305-1.011 1.472-0.020c0.811-0.012 1.473-0.013 1.473-0.005 0 0.063-2.467 3.691-2.565 3.773l-0.128 0.107 0.096-0.115c0.093-0.111 0.091-0.169-0.113-1.856-0.116-0.957-0.224-1.755-0.239-1.771-0.021-0.020-2.361 1.74-2.66 2.003-0.021 0.017 0.020 0.464 0.091 0.992 0.161 1.2 0.161 1.124-0.008 0.991-0.136-0.107-0.201-0.111-1.904-0.111-1.747 0-1.764 0.001-1.888 0.119l-0.127 0.117 0.032-0.211-0.035 0.309c0.088-0.639 0.167-1.281 0.256-2.183-0.091-0.088-2.671-2.045-2.695-2.045-0.019 0-0.128 0.792-0.243 1.76l-0.208 1.761 0.128 0.143 0.129 0.143-0.163-0.129c-0.131-0.104-2.499-3.596-2.577-3.801zM27.348 21.052c-0.096-0.012-0.031-0.021 0.145-0.023 0.176 0 0.255 0.009 0.175 0.023-0.080 0.012-0.224 0.012-0.32 0zM17.604 21.204c-0.003-0.056 0.011-0.087 0.028-0.069s0.020 0.064 0.004 0.103c-0.016 0.041-0.029 0.029-0.032-0.033zM14.355 21.28c0-0.073 0.012-0.103 0.027-0.067l-0-0.001c0.008 0.021 0.012 0.044 0.012 0.068s-0.004 0.047-0.012 0.067c-0.015 0.037-0.027 0.007-0.027-0.067zM17.555 21.493c0-0.073 0.012-0.103 0.027-0.067l-0-0.001c0.008 0.021 0.012 0.044 0.012 0.068s-0.004 0.047-0.012 0.067c-0.015 0.037-0.027 0.007-0.027-0.067zM14.408 21.547c0-0.073 0.012-0.104 0.027-0.067l-0-0.001c0.008 0.021 0.012 0.044 0.012 0.068s-0.004 0.047-0.012 0.067c-0.015 0.037-0.027 0.007-0.027-0.067zM17.501 21.76c0-0.073 0.012-0.104 0.027-0.067l-0-0.001c0.008 0.021 0.012 0.044 0.012 0.068s-0.004 0.047-0.012 0.067c-0.015 0.037-0.027 0.007-0.027-0.067zM14.461 21.813c0-0.073 0.012-0.104 0.027-0.067l-0-0.001c0.008 0.021 0.012 0.044 0.012 0.068s-0.004 0.047-0.012 0.067c-0.015 0.037-0.027 0.007-0.027-0.067zM17.448 22.027c0-0.073 0.012-0.104 0.027-0.067l-0-0.001c0.008 0.021 0.012 0.044 0.012 0.068s-0.004 0.047-0.012 0.067c-0.015 0.037-0.027 0.007-0.027-0.067zM14.515 22.080c0-0.073 0.012-0.103 0.027-0.067l-0-0.001c0.008 0.021 0.012 0.044 0.012 0.068s-0.004 0.047-0.012 0.067c-0.015 0.036-0.027 0.007-0.027-0.067zM17.395 22.293c0-0.073 0.012-0.103 0.027-0.067l-0-0.001c0.008 0.021 0.012 0.044 0.012 0.068s-0.004 0.047-0.012 0.067c-0.015 0.036-0.027 0.007-0.027-0.067zM14.564 22.377c-0.003-0.056 0.011-0.087 0.028-0.069s0.020 0.064 0.004 0.103c-0.016 0.041-0.029 0.029-0.032-0.033zM21.057 24.783c-0.043-0.016-0.031-0.029 0.032-0.032 0.056-0.003 0.087 0.011 0.069 0.028s-0.064 0.020-0.101 0.004zM10.657 24.836c-0.043-0.016-0.031-0.029 0.032-0.032 0.056-0.003 0.087 0.011 0.069 0.028s-0.064 0.020-0.101 0.004zM21.271 24.836c-0.043-0.016-0.031-0.029 0.032-0.032 0.056-0.003 0.087 0.011 0.069 0.028s-0.064 0.020-0.101 0.004zM10.32 24.907l-0.004 0.001c0.058-0.026 0.122-0.042 0.19-0.047 0.051 0 0.040 0.016-0.027 0.045l0.004-0.001c-0.058 0.026-0.122 0.042-0.19 0.047-0.051 0-0.040-0.016 0.027-0.045zM21.644 24.943c-0.043-0.016-0.031-0.029 0.032-0.032 0.056-0.003 0.087 0.011 0.069 0.028s-0.064 0.020-0.101 0.004zM10.071 24.996c-0.043-0.016-0.031-0.029 0.032-0.032 0.056-0.003 0.087 0.011 0.069 0.028s-0.064 0.020-0.101 0.004zM21.893 25.013c-0.067-0.029-0.077-0.045-0.027-0.045l0.002 0c0.067 0.005 0.13 0.021 0.185 0.045 0.067 0.029 0.077 0.045 0.027 0.045l-0.002-0c-0.067-0.005-0.13-0.021-0.185-0.045zM9.696 25.103c-0.041-0.016-0.029-0.029 0.033-0.032 0.056-0.003 0.087 0.011 0.069 0.028s-0.064 0.020-0.103 0.004zM11.467 25.087c0-0.044 0.044-0.016 0.113 0.073 0.067 0.084 0.064 0.087-0.020 0.020-0.051-0.040-0.093-0.083-0.093-0.093zM22.229 25.103c-0.041-0.016-0.029-0.029 0.033-0.032 0.056-0.003 0.087 0.011 0.069 0.028s-0.064 0.020-0.103 0.004zM9.483 25.156c-0.041-0.016-0.029-0.029 0.033-0.032 0.056-0.003 0.087 0.011 0.069 0.028s-0.064 0.020-0.103 0.004zM22.604 25.209c-0.043-0.016-0.031-0.029 0.032-0.032 0.056-0.003 0.087 0.011 0.069 0.028s-0.064 0.020-0.101 0.004zM9.111 25.263c-0.043-0.016-0.031-0.029 0.032-0.032 0.056-0.003 0.087 0.011 0.069 0.028s-0.064 0.020-0.101 0.004zM20.207 25.32c0.069-0.089 0.113-0.117 0.113-0.073l-0.001 0.001c-0.025 0.036-0.056 0.067-0.093 0.092-0.084 0.067-0.087 0.064-0.020-0.020zM22.817 25.263c-0.043-0.016-0.031-0.029 0.032-0.032 0.056-0.003 0.087 0.011 0.069 0.028s-0.064 0.020-0.101 0.004zM8.773 25.333l-0.004 0.001c0.058-0.026 0.122-0.042 0.19-0.047 0.051 0 0.040 0.016-0.027 0.045l0.004-0.001c-0.058 0.026-0.122 0.042-0.19 0.047-0.051 0-0.040-0.016 0.027-0.045zM11.733 25.3c0-0.044 0.044-0.016 0.113 0.073 0.067 0.084 0.064 0.087-0.020 0.020-0.051-0.040-0.093-0.083-0.093-0.093zM23.191 25.369c-0.043-0.016-0.031-0.029 0.032-0.032 0.056-0.003 0.087 0.011 0.069 0.028s-0.064 0.020-0.101 0.004zM8.524 25.423c-0.043-0.016-0.031-0.029 0.032-0.032 0.056-0.003 0.087 0.011 0.069 0.028s-0.064 0.020-0.101 0.004zM23.404 25.423c-0.043-0.016-0.031-0.029 0.032-0.032 0.056-0.003 0.087 0.011 0.069 0.028s-0.064 0.020-0.101 0.004zM8.149 25.529c-0.041-0.016-0.029-0.029 0.033-0.032 0.056-0.003 0.087 0.011 0.069 0.028s-0.064 0.020-0.103 0.004zM23.776 25.529c-0.041-0.016-0.029-0.029 0.033-0.032 0.056-0.003 0.087 0.011 0.069 0.028s-0.064 0.020-0.103 0.004zM7.936 25.583c-0.041-0.016-0.029-0.029 0.033-0.032 0.056-0.003 0.087 0.011 0.069 0.028s-0.064 0.020-0.103 0.004zM24.027 25.6c-0.067-0.029-0.077-0.045-0.027-0.045l0.002 0c0.067 0.005 0.13 0.021 0.185 0.045 0.067 0.029 0.077 0.045 0.027 0.045l-0.002-0c-0.067-0.005-0.13-0.021-0.185-0.045zM7.564 25.689c-0.043-0.016-0.031-0.029 0.032-0.032 0.056-0.003 0.087 0.011 0.069 0.028s-0.064 0.020-0.101 0.004zM24.364 25.689c-0.043-0.016-0.031-0.029 0.032-0.032 0.056-0.003 0.087 0.011 0.069 0.028s-0.064 0.020-0.101 0.004zM7.227 25.76l-0.004 0.001c0.058-0.026 0.122-0.042 0.19-0.047 0.051 0 0.040 0.016-0.027 0.045l0.004-0.001c-0.058 0.026-0.122 0.042-0.19 0.047-0.051 0-0.040-0.016 0.027-0.045zM24.737 25.796c-0.043-0.016-0.031-0.029 0.032-0.032 0.056-0.003 0.087 0.011 0.069 0.028s-0.064 0.020-0.101 0.004zM6.976 25.849c-0.041-0.016-0.029-0.029 0.033-0.032 0.056-0.003 0.087 0.011 0.069 0.028s-0.064 0.020-0.103 0.004zM24.951 25.849c-0.043-0.016-0.031-0.029 0.032-0.032 0.056-0.003 0.087 0.011 0.069 0.028s-0.064 0.020-0.101 0.004zM6.603 25.956c-0.041-0.016-0.029-0.029 0.033-0.032 0.056-0.003 0.087 0.011 0.069 0.028s-0.064 0.020-0.103 0.004zM25.323 25.956c-0.041-0.016-0.029-0.029 0.033-0.032 0.056-0.003 0.087 0.011 0.069 0.028s-0.064 0.020-0.103 0.004zM6.391 26.009c-0.043-0.016-0.031-0.029 0.032-0.032 0.056-0.003 0.087 0.011 0.069 0.028s-0.064 0.020-0.101 0.004zM25.536 26.009c-0.041-0.016-0.029-0.029 0.033-0.032 0.056-0.003 0.087 0.011 0.069 0.028s-0.064 0.020-0.103 0.004zM6.017 26.116c-0.043-0.016-0.031-0.029 0.032-0.032 0.056-0.003 0.087 0.011 0.069 0.028s-0.064 0.020-0.101 0.004zM25.911 26.116c-0.043-0.016-0.031-0.029 0.032-0.032 0.056-0.003 0.087 0.011 0.069 0.028s-0.064 0.020-0.101 0.004zM5.804 26.169c-0.043-0.016-0.031-0.029 0.032-0.032 0.056-0.003 0.087 0.011 0.069 0.028s-0.064 0.020-0.101 0.004zM26.124 26.169c-0.043-0.016-0.031-0.029 0.032-0.032 0.056-0.003 0.087 0.011 0.069 0.028s-0.064 0.020-0.101 0.004z"></path>
</symbol>
</defs>
</svg>
